<svg width="45" height="45" viewBox="0 0 45 45" fill="none" xmlns="http://www.w3.org/2000/svg">
<path d="M36.5625 5.625H32.3438V4.21875C32.3438 3.84579 32.1956 3.4881 31.9319 3.22438C31.6681 2.96066 31.3105 2.8125 30.9375 2.8125C30.5645 2.8125 30.2069 2.96066 29.9431 3.22438C29.6794 3.4881 29.5312 3.84579 29.5312 4.21875V5.625H15.4688V4.21875C15.4688 3.84579 15.3206 3.4881 15.0569 3.22438C14.7931 2.96066 14.4355 2.8125 14.0625 2.8125C13.6895 2.8125 13.3319 2.96066 13.0681 3.22438C12.8044 3.4881 12.6562 3.84579 12.6562 4.21875V5.625H8.4375C7.69158 5.625 6.97621 5.92132 6.44876 6.44876C5.92132 6.97621 5.625 7.69158 5.625 8.4375V36.5625C5.625 37.3084 5.92132 38.0238 6.44876 38.5512C6.97621 39.0787 7.69158 39.375 8.4375 39.375H36.5625C37.3084 39.375 38.0238 39.0787 38.5512 38.5512C39.0787 38.0238 39.375 37.3084 39.375 36.5625V8.4375C39.375 7.69158 39.0787 6.97621 38.5512 6.44876C38.0238 5.92132 37.3084 5.625 36.5625 5.625ZM29.7949 23.5195L21.5859 31.2539C21.4583 31.379 21.3072 31.4776 21.1412 31.544C20.9753 31.6103 20.7978 31.6432 20.6191 31.6406C20.2589 31.642 19.9123 31.5033 19.6523 31.2539L15.2051 27.0352C15.0622 26.9105 14.946 26.7583 14.8635 26.5876C14.781 26.4169 14.7339 26.2313 14.7249 26.042C14.7159 25.8526 14.7454 25.6634 14.8114 25.4857C14.8774 25.308 14.9787 25.1454 15.1092 25.0079C15.2396 24.8703 15.3965 24.7605 15.5705 24.6852C15.7444 24.6098 15.9318 24.5704 16.1214 24.5693C16.311 24.5682 16.4988 24.6054 16.6736 24.6788C16.8485 24.7521 17.0066 24.8601 17.1387 24.9961L20.6191 28.3008L27.8613 21.4805C27.9941 21.3515 28.1514 21.2504 28.3239 21.1831C28.4963 21.1158 28.6805 21.0836 28.8656 21.0885C29.0507 21.0935 29.2329 21.1353 29.4015 21.2117C29.5702 21.288 29.7219 21.3974 29.8477 21.5332C30.1038 21.8037 30.2421 22.1649 30.2322 22.5373C30.2223 22.9097 30.065 23.263 29.7949 23.5195ZM36.5625 14.0625H8.4375V8.4375H12.6562V9.84375C12.6562 10.2167 12.8044 10.5744 13.0681 10.8381C13.3319 11.1018 13.6895 11.25 14.0625 11.25C14.4355 11.25 14.7931 11.1018 15.0569 10.8381C15.3206 10.5744 15.4688 10.2167 15.4688 9.84375V8.4375H29.5312V9.84375C29.5312 10.2167 29.6794 10.5744 29.9431 10.8381C30.2069 11.1018 30.5645 11.25 30.9375 11.25C31.3105 11.25 31.6681 11.1018 31.9319 10.8381C32.1956 10.5744 32.3438 10.2167 32.3438 9.84375V8.4375H36.5625V14.0625Z" fill="#111827"/>
</svg>
